{"title":"[JRR] Sword Art Online II - 18 [Eng Subbed] [SD] [AnimeRG].mp4","uid":11405238,"size":52789165,"categoryP":"video","categoryS":"tv_shows","magnet":"?xt=urn:btih:77affe67fc22def895a46617a63d0457236abd76&amp;dn=%5BJRR%5D+Sword+Art+Online+II+-+18+%5BEng+Subbed%5D+%5BSD%5D+%5BAnimeRG%5D.mp4&amp;tr=udp%3A%2F%2Ftracker.openbittorrent.com%3A80&amp;tr=udp%3A%2F%2Fopen.demonii.com%3A1337&amp;tr=udp%3A%2F%2Ftracker.coppersurfer.tk%3A6969&amp;tr=udp%3A%2F%2Fexodus.desync.com%3A6969","seeders":1,"leechers":0,"uploader":"JRRtv","files":1,"time":1415470887,"description":"[b]General[/b] \nFormat : MPEG-4 \nCodec ID : isom \nFile size : 50.3 MiB \nDuration : 23mn 40s \nOverall bit rate mode : Variable \nOverall bit rate : 297 Kbps \n\n[b]Video[/b] \nFormat : AVC \nFormat/Info : Advanced Video Codec \nFormat profile : &lt;a class=&quot;__cf_email__&quot; href=&quot;/cdn-cgi/l/email-protection&quot; data-cfemail=&quot;054d6c626d4549362b35&quot;&gt;[email&amp;#160;protected]&lt;/a&gt;&lt;script cf-hash='f9e31' type=&quot;text/javascript&quot;&gt;\n/* &lt;![CDATA[ */!function(){try{var t=&quot;currentScript&quot;in document?document.currentScript:function(){for(var t=document.getElementsByTagName(&quot;script&quot;),e=t.length;e--;)if(t[e].getAttribute(&quot;cf-hash&quot;))return t[e]}();if(t&amp;&amp;t.previousSibling){var e,r,n,i,c=t.previousSibling,a=c.getAttribute(&quot;data-cfemail&quot;);if(a){for(e=&quot;&quot;,r=parseInt(a.substr(0,2),16),n=2;a.length-n;n+=2)i=parseInt(a.substr(n,2),16)^r,e+=String.fromCharCode(i);e=document.createTextNode(e),c.parentNode.replaceChild(e,c)}}}catch(u){}}();/* ]]&gt; */&lt;/script&gt; \nFormat settings, CABAC : Yes \nFormat settings, ReFrames : 4 frames \nCodec ID : avc1 \nCodec ID/Info : Advanced Video Coding \nDuration : 23mn 40s \nBit rate : 198 Kbps \nMaximum bit rate : 1 726 Kbps \nWidth : 656 pixels \nHeight : 368 pixels \nDisplay aspect ratio : 16:9 \nOriginal display aspect ratio : 16:9 \nFrame rate mode : Constant \nFrame rate : 23.976 fps \nColor space : YUV \nChroma subsampling : 4:2:0 \nBit depth : 8 bits \nScan type : Progressive \nBits/(Pixel*Frame) : 0.034 \nStream size : 33.5 MiB (67%) \n\n[b]Audio[/b] \nFormat : AAC \nFormat/Info : Advanced Audio Codec \nFormat profile : LC \nCodec ID : 40 \nDuration : 23mn 40s \nBit rate mode : Variable \nBit rate : 96.0 Kbps \nMaximum bit rate : 107 Kbps \nChannel(s) : 2 channels \nChannel positions : Front: L R \nSampling rate : 44.1 KHz \nCompression mode : Lossy \nStream size : 16.3 MiB (32%) \n\n[b]\nSubtitles[/b]\nLanguage : English\nSource : [color=red]Crunchyroll[/color]\nType : Hard Subbed\n\n[img]http://i.imgur.com/4fTfdVr.png[/img]\n[img]http://i.imgur.com/m5P2NpY.png[/img]\n[img]http://i.imgur.com/EvZMzUi.png[/img]","torrent":{"xt":"urn:btih:77affe67fc22def895a46617a63d0457236abd76","amp;dn":"%5BJRR%5D+Sword+Art+Online+II+-+18+%5BEng+Subbed%5D+%5BSD%5D+%5BAnimeRG%5D.mp4","amp;tr":["udp%3A%2F%2Ftracker.openbittorrent.com%3A80","udp%3A%2F%2Fopen.demonii.com%3A1337","udp%3A%2F%2Ftracker.coppersurfer.tk%3A6969","udp%3A%2F%2Fexodus.desync.com%3A6969"],"infoHash":"77affe67fc22def895a46617a63d0457236abd76","infoHashBuffer":{"type":"Buffer","data":[119,175,254,103,252,34,222,248,149,164,102,23,166,61,4,87,35,106,189,118]},"announce":[],"urlList":[]}}